<svg xmlns="http://www.w3.org/2000/svg" width="425.225" height="290.563" viewBox="0 0 425.225 290.563"><defs><style>.a,.h{fill:#00b0ff;}.a,.e{opacity:0.1;}.b{fill:#ffdf9c;}.c{fill:#ffcdd3;}.d{opacity:0.05;}.f{fill:#dce6f2;}.g{fill:#ff8aa1;}.i,.n{fill:#fff;}.i{opacity:0.2;}.j,.k{fill:none;stroke:#535461;stroke-miterlimit:10;}.k{stroke-width:2px;}.l{fill:#fc6681;}.m{fill:#ffd037;}.n{opacity:0.4;}.o{fill:#3f3d56;}</style></defs><g transform="translate(0)"><path class="a" d="M410.813,253.8c-11.575,14.716-7.078,36.214.277,53.432,2.463,5.765,5.248,11.864,4.209,18.045-1.271,7.559-8.017,13.087-15.1,16.017a44.945,44.945,0,0,1-40.231-3.314c-10.254-6.379-17.6-16.752-28.026-22.841-17.453-10.189-39.667-6.341-58.618.677-13.408,4.966-28.066,11.423-41.389,6.234-9.374-3.651-15.854-12.539-19.385-21.96-1.7-4.548-2.942-9.472-6.2-13.077a23.112,23.112,0,0,0-7.048-4.947c-23.625-11.714-53.463-5.441-76.409-18.433-15.5-8.774-25.419-25.326-29.811-42.584S89.2,185.7,90.318,167.925c.793-12.631,2.215-26.116,10.285-35.865,8.538-10.313,23.191-14.147,36.435-12.187s25.249,8.946,35.81,17.175c13.2,10.284,25.44,23.09,41.645,27.256,11.036,2.837,22.646,1.285,34.028.748,19.029-.9,38.065,1.1,56.988,3.287,18.116,2.094,36.363,4.4,53.622,10.292,12.213,4.171,22,11.741,33.537,17.03,7.517,3.447,15.715,4.4,22.832,8.79,8.768,5.409,16.805,14.817,14.559,25.826C427.924,240.744,416.957,245.994,410.813,253.8Z" transform="translate(-62.593 -94.35)"/><path class="a" d="M39.172,544.118s66.56-17.459,152.762,26.915,180.4-34.917,178.586-46.92,62.56,0,62.56,0v107.3H39.172Z" transform="translate(-30.542 -348.482)"/><circle class="b" cx="18.09" cy="18.09" r="18.09" transform="translate(36.87 0)"/><path class="c" d="M496.75,304.7,493.8,323.026s-3.683,12.1-3.315,17.961,0,13.929,0,13.929-8.839,16.128-1.473,22.726,9.576-20.893,9.576-20.893-1.1-11.73,1.473-17.961,2.946-19.794,2.946-19.794Z" transform="translate(-314.905 -212.266)"/><path class="d" d="M496.75,304.7,493.8,323.026s-3.683,12.1-3.315,17.961,0,13.929,0,13.929-8.839,16.128-1.473,22.726,9.576-20.893,9.576-20.893-1.1-11.73,1.473-17.961,2.946-19.794,2.946-19.794Z" transform="translate(-314.905 -212.266)"/><path class="c" d="M575.312,477.973l5.095,19.084,4.788,22.359s2.578,4.765,0,14.662l8.471,27.491s4.788,17.594,7.734,17.961-2.946,13.929-2.946,13.929l-8.1-4.765s-2.21-11-5.156-13.562-12.522-28.224-12.522-28.224l-2.946-17.961s-9.207-24.559-17.31-30.423-10.681-15.4-10.681-15.4Z" transform="translate(-350.314 -322.517)"/><path class="d" d="M541.735,483.131s2.578,9.53,10.681,15.4,17.31,30.423,17.31,30.423l2.946,17.961s9.576,25.658,12.522,28.224c2.162,1.884,3.93,8.31,4.714,11.594.287,1.191.442,1.968.442,1.968l8.1,4.765s5.893-13.562,2.946-13.929c-.457-.055-.958-.528-1.481-1.283-2.836-4.113-6.254-16.678-6.254-16.678l-8.471-27.491c2.578-9.9,0-14.662,0-14.662l-4.788-22.359-5.094-19.082Z" transform="translate(-350.314 -322.52)"/><path class="c" d="M412.124,590.654l2.946,6.964,13.259-1.466a30.438,30.438,0,0,1-.678-5.755c-.118-4.16.523-9.776,3.992-14.039,6.261-7.7,15.837-26.758,15.837-26.758s9.576-10.263,11.786-14.3L477.7,504.527l-.575-2.76,4.972-4.582H451.163L443.8,525.775l-5.893,11.73s-12.522,10.63-17.31,32.989c0,0-4.777,14.9-7.819,19.343a5.345,5.345,0,0,1-.652.817Z" transform="translate(-267.845 -334.741)"/><path class="e" d="M674.182,762.142c.287,1.191.442,1.968.442,1.968l8.1,4.765s5.893-13.562,2.946-13.929c-.457-.055-.958-.528-1.481-1.283a2.064,2.064,0,0,0-.943,2.284,5.661,5.661,0,0,0,.582,1.565c1.1,1.833-3.683,4.765-3.683,4.765C678.535,764.342,675.917,763.253,674.182,762.142Z" transform="translate(-434.588 -497.934)"/><path class="f" d="M681.124,757.367a2.14,2.14,0,0,1,3.643-1.945,7.085,7.085,0,0,1,.99,1.311c1.473,2.566,12.522,4.765,14.732,4.032s9.944-1.466,8.1,4.032S673.6,778.359,673.6,778.359s-3.683-5.132-3.315-8.8a41.878,41.878,0,0,0,0-7.331s5.156,4.765,7.734,1.466c0,0,4.788-2.932,3.683-4.765A5.665,5.665,0,0,1,681.124,757.367Z" transform="translate(-432.094 -498.621)"/><path class="e" d="M412.124,751.964l2.946,6.964,13.259-1.466a30.447,30.447,0,0,1-.678-5.755,1.817,1.817,0,0,0-2.957-.422c-.685.733-1.377,1.506-1.889,2.144-1.473,1.833-6.261.733-6.261.733-1.241.411-2.714-1.371-3.768-3.017a5.342,5.342,0,0,1-.652.817Z" transform="translate(-267.845 -496.051)"/><path class="f" d="M412.727,749.735a1.813,1.813,0,0,1,3.083.76c.67,2.606,2.14,5.974,5.341,7.248,5.524,2.2,13.259,5.865,10.681,9.164s-11.417,6.231-19.152,3.666-18.783-8.8-18.783-8.8l5.524-14.662s2.946,6.231,5.156,5.5c0,0,4.788,1.1,6.261-.733C411.352,751.241,412.043,750.47,412.727,749.735Z" transform="translate(-256.247 -493.767)"/><path class="c" d="M540.728,171.766s-8.839,12.1-6.629,20.527-17.678-5.5-17.678-5.5a29.216,29.216,0,0,0,8.471-24.192Z" transform="translate(-334.207 -121.853)"/><path class="g" d="M502.529,324.621c14.732,8.8,32.41,5.132,32.41,5.132l-.368-2.566c.258.026.516.051.766.073,14.08,1.239,17.281-3.006,17.281-3.006-2.2-6.162-3.93-19.225-5.005-29.324-.155-1.452-.295-2.841-.423-4.142-.291-2.943-.508-5.421-.648-7.1-.122-1.474-.184-2.324-.184-2.324l-1.473-11s-4.051-13.2-2.21-21.993c1.568-7.493-3.542-10.2-5.093-10.837a4.917,4.917,0,0,0-.749-.221c-2.02-.477-4.27-2.532-6.184-4.736a24.836,24.836,0,0,0-10.331-7.016c-1.853-.671-3.425-1.382-3.425-1.382-2.578-2.932-9.576-1.1-9.576-1.1-8.471,5.5-4.051,23.459-4.051,23.459l3.521,10.014a74.261,74.261,0,0,0,7.985,15.754c5.414,8.313-1.93,19.684-1.93,19.684C501.424,301.162,502.529,324.621,502.529,324.621Z" transform="translate(-325.104 -159.978)"/><path class="d" d="M589.833,427l1.318,19.684c14.08,1.239,17.281-3.006,17.281-3.006-2.2-6.162-3.93-19.225-5.005-29.324-.155-1.452-.295-2.841-.424-4.142Z" transform="translate(-380.918 -279.403)"/><path class="e" d="M519.281,288.2s6.629,12.463,8.839,17.961,2.21,3.665,3.315,5.5,12.89,9.9,12.89,9.9l11.936,5.5c-.5-4.736-.869-8.823-1.072-11.238l-11.233-7.456s-7.734-4.765-8.1-11-5.156-17.594-5.156-17.594-9.576-10.263-13.627-5.5S519.281,288.2,519.281,288.2Z" transform="translate(-333.753 -192.104)"/><path class="c" d="M530.7,274.733s4.788,11.363,5.156,17.594,8.1,11,8.1,11l24.308,16.128s20.993,6.964,14,15.029-18.047-8.8-18.047-8.8l-19.888-9.164s-11.785-8.064-12.89-9.9-1.1,0-3.315-5.5-8.839-17.961-8.839-17.961-6.261-9.164-2.21-13.929S530.7,274.733,530.7,274.733Z" transform="translate(-333.753 -188.898)"/><path class="e" d="M528.3,268.881s-7.366-5.5-8.839-7.331a2.078,2.078,0,0,0-2.584-.3,11.654,11.654,0,0,1-5.472.9c-1.611-.137-3.177-.046-2.992.871.368,1.833-1.1-9.53-1.1-9.53l6.261-2.2,8.1,4.4Z" transform="translate(-328.408 -178.281)"/><path class="g" d="M528.3,266.866s-7.366-5.5-8.839-7.331a2.078,2.078,0,0,0-2.584-.3,11.656,11.656,0,0,1-5.472.9c-1.611-.137-3.177-.046-2.992.871.368,1.833-1.1-9.53-1.1-9.53l6.261-2.2,8.1,4.4Z" transform="translate(-328.408 -176.999)"/><path class="e" d="M598.154,298.7a9.074,9.074,0,0,1-8.321-.55" transform="translate(-380.918 -208.098)"/><path class="e" d="M541.46,164.043c.275-2.191-2.451,2.36-2.762-.183l15.837,9.164s-.9,1.239-2.06,3.2a16.245,16.245,0,0,1-1.807.1C545.9,176.323,544.394,167.329,541.46,164.043Z" transform="translate(-348.381 -122.377)"/><ellipse class="c" cx="16.021" cy="15.945" rx="16.021" ry="15.945" transform="translate(186.633 21.323)"/><path class="e" d="M466.586,111.419a8.132,8.132,0,0,1-.576,2.948c-.67,1.244-2.114,1.81-3.322,2.551-4.894,3-6.346,9.751-4.786,15.258.552,1.948,1.422,3.926,1.06,5.918-.621,3.424-4.539,5.2-8.022,5.5s-7.127-.258-10.384,1.007c-5.469,2.123-7.878,8.508-12.527,12.076-5.408,4.15-12.856,3.893-19.667,4.373a28.09,28.09,0,0,1-7.548-.022c-2.474-.5-4.915-1.986-5.789-4.343-1.233-3.326,1.013-6.933,3.621-9.347s5.792-4.452,7.269-7.678c1.985-4.337.38-9.814,2.878-13.881a4.268,4.268,0,0,1,2.031-1.854,9.074,9.074,0,0,1,3.494-.087c4.548.156,8.427-3.455,10.54-7.467s3.01-8.553,4.942-12.654a21.382,21.382,0,0,1,10.565-10.752c2.775-1.18,5.8-1.614,8.7-2.453,3.293-.954,6.436-2.44,9.809-3.059s7.194-.21,9.66,2.162c2.321,2.233,3,5.736,5.217,8.07.839.882,1.915,1.628,2.319,2.774.956,2.715-3.683,2.944-5.23,4.031A10.124,10.124,0,0,0,466.586,111.419Z" transform="translate(-256.744 -73.873)"/><path class="h" d="M464.561,110.411a8.132,8.132,0,0,1-.576,2.948c-.67,1.244-2.114,1.81-3.322,2.551-4.894,3-6.346,9.751-4.786,15.258.552,1.948,1.422,3.926,1.061,5.918-.621,3.424-4.54,5.2-8.022,5.5s-7.127-.258-10.384,1.007c-5.469,2.123-7.878,8.508-12.527,12.076-5.407,4.15-12.856,3.893-19.667,4.373a28.091,28.091,0,0,1-7.548-.022c-2.474-.5-4.915-1.986-5.789-4.343-1.233-3.326,1.013-6.933,3.621-9.347s5.792-4.452,7.269-7.678c1.985-4.337.38-9.814,2.878-13.881a4.268,4.268,0,0,1,2.031-1.854,9.074,9.074,0,0,1,3.494-.087c4.548.156,8.427-3.455,10.54-7.467s3.01-8.553,4.942-12.654A21.382,21.382,0,0,1,438.34,91.958c2.775-1.18,5.8-1.614,8.7-2.453,3.293-.954,6.436-2.44,9.809-3.059s7.194-.21,9.66,2.162c2.321,2.233,3,5.736,5.216,8.07.839.882,1.915,1.628,2.319,2.774.956,2.715-3.683,2.944-5.23,4.031A10.124,10.124,0,0,0,464.561,110.411Z" transform="translate(-255.456 -73.232)"/><path class="h" d="M67.683,743.574s-12-21.459,2.91-38.554,32.371-7.638,32.371-7.638,21.823,10.184,16.731,34.553c0,0-2.91,12.366-11.639,11.639Z" transform="translate(-45.778 -460.463)"/><path class="i" d="M67.683,743.574s-12-21.459,2.91-38.554,32.371-7.638,32.371-7.638,21.823,10.184,16.731,34.553c0,0-2.91,12.366-11.639,11.639Z" transform="translate(-45.778 -460.463)"/><line class="j" y1="40.04" x2="13.155" transform="translate(40.758 243.102)"/><path class="j" d="M152.769,715.585S146,712.4,139.2,714.174c0,0-3.524-8.773-11.526-10.228" transform="translate(-86.853 -466.3)"/><path class="j" d="M142.68,745.254s-11.517-8.324-19.943-5.8c0,0-9.518-11.3-16.065-10.569" transform="translate(-73.491 -482.148)"/><path class="j" d="M128.681,782.5s-9.843-7.119-22.016-6.651c0,0-9.263-11.171-17.993-11.9" transform="translate(-62.038 -504.477)"/><path class="j" d="M93.894,813.323a25.828,25.828,0,0,0-4.7-1.685s-7.585-9.864-22.771-6.651" transform="translate(-47.881 -530.181)"/><path class="h" d="M322.627,675.6s12-19.641-17.822-48.738-28.006-34.553-25.46-38.918c0,0-24.005,2.91-18.913,38.918S287.347,675.6,287.347,675.6Z" transform="translate(-170.875 -392.491)"/><path class="k" d="M330.162,675.6s-8.911-25.824-22.369-41.464-10.912-41.464-4-46.192" transform="translate(-195.322 -392.491)"/><path class="h" d="M962.9,178.992c-5.36,5.439-5.712,13.783-5.712,13.783s8.338-.475,13.7-5.914,5.712-13.783,5.712-13.783S968.26,173.552,962.9,178.992Z" transform="translate(-614.659 -128.518)"/><path class="l" d="M85.9,406.992c-5.36,5.439-5.712,13.783-5.712,13.783s8.338-.475,13.7-5.914S99.6,401.078,99.6,401.078,91.26,401.552,85.9,406.992Z" transform="translate(-56.64 -273.59)"/><path class="h" d="M906.9,455.992c-5.36,5.439-5.712,13.783-5.712,13.783s8.338-.475,13.7-5.914,5.712-13.783,5.712-13.783S912.26,450.552,906.9,455.992Z" transform="translate(-579.027 -304.768)"/><path class="h" d="M168.63,447.61c-7.063-2.9-14.92-.073-14.92-.073s3.594,7.538,10.657,10.442,14.92.073,14.92.073S175.693,450.514,168.63,447.61Z" transform="translate(-103.421 -302.365)"/><path class="m" d="M417.253,404.717c-4.082-6.453-12.129-8.688-12.129-8.688s-1.428,8.228,2.655,14.682,12.129,8.688,12.129,8.688S421.336,411.17,417.253,404.717Z" transform="translate(-263.237 -270.378)"/><circle class="l" cx="3.153" cy="3.153" r="3.153" transform="translate(249.397 157.862)"/><circle class="l" cx="3.153" cy="3.153" r="3.153" transform="translate(256.755 191.495)"/><path class="h" d="M474.4,604.993s-12-13.458-16.367,3.273-6.911,18.913-15.64,14.549-17.822,16.367,3.637,31.28,9.457,29.643,9.457,29.643h76.745s10.184-29.643-12-39.827S498.768,626.089,499.5,615.9,474.4,604.993,474.4,604.993Z" transform="translate(-281.001 -400.082)"/><path class="k" d="M519.172,599.876S569,665.553,551.907,683.739" transform="translate(-335.958 -400.082)"/><path class="k" d="M483.75,642.742s11.792,10.035,31.069,4.943,14.524-18.155,14.524-18.155" transform="translate(-313.419 -418.951)"/><path class="k" d="M535.766,703.7s-25.653-12.442-38.551-7.8c-33.579,12.081-58.544-20.457-58.544-20.457" transform="translate(-284.737 -448.165)"/><path class="h" d="M395.659,627.245s15.64-11.639-4-52.375c0,0-26.188-32.371,0-62.923,0,0-57.1,1.455-56.013,54.558S364.2,627.245,364.2,627.245Z" transform="translate(-219.173 -344.134)"/><path class="k" d="M425.464,627.245s-3.94-28.006-14.488-45.1a36.665,36.665,0,0,1-4.432-11.169,45.768,45.768,0,0,1,12.889-42.816l16.639-16.213" transform="translate(-263.588 -344.134)"/><path class="e" d="M395.659,627.245s15.64-11.639-4-52.375c0,0-26.188-32.371,0-62.923,0,0-57.1,1.455-56.013,54.558S364.2,627.245,364.2,627.245Z" transform="translate(-219.173 -344.134)"/><path class="h" d="M851.139,684.654s-53.519-11.965,14.577-81.978c0,0,29.354,27.82,18.585,62.4a28.427,28.427,0,0,1-32.364,19.739Q851.54,684.741,851.139,684.654Z" transform="translate(-534.462 -401.864)"/><path class="n" d="M851.441,684.654c-1.175-.263-52.366-13.15,14.577-81.978,0,0,29.354,27.82,18.585,62.4a28.427,28.427,0,0,1-32.364,19.739Q851.843,684.741,851.441,684.654Z" transform="translate(-534.764 -401.864)"/><path class="j" d="M888.043,685.052s28.268-42.586,13.874-82.376" transform="translate(-570.663 -401.864)"/><path class="h" d="M242.139,684.654s-53.519-11.965,14.577-81.978c0,0,29.354,27.82,18.585,62.4a28.426,28.426,0,0,1-32.364,19.739Q242.54,684.741,242.139,684.654Z" transform="translate(-146.966 -401.864)"/><path class="n" d="M242.441,684.654c-1.175-.263-52.366-13.15,14.577-81.978,0,0,29.354,27.82,18.585,62.4a28.426,28.426,0,0,1-32.364,19.739Q242.843,684.741,242.441,684.654Z" transform="translate(-147.269 -401.864)"/><path class="j" d="M279.043,685.052s28.268-42.586,13.874-82.376" transform="translate(-183.168 -401.864)"/><path class="h" d="M571.139,684.654s-53.519-11.965,14.577-81.978c0,0,29.354,27.82,18.585,62.4a28.426,28.426,0,0,1-32.364,19.739Q571.54,684.741,571.139,684.654Z" transform="translate(-356.303 -401.864)"/><path class="n" d="M571.441,684.654c-1.175-.263-52.366-13.15,14.577-81.978,0,0,29.354,27.82,18.585,62.4a28.426,28.426,0,0,1-32.364,19.739Q571.843,684.741,571.441,684.654Z" transform="translate(-356.605 -401.864)"/><path class="j" d="M608.043,685.052s28.268-42.586,13.874-82.376" transform="translate(-392.505 -401.864)"/><path class="h" d="M1023.138,684.654s-53.519-11.965,14.577-81.978c0,0,29.354,27.82,18.585,62.4a28.426,28.426,0,0,1-32.364,19.739Q1023.538,684.741,1023.138,684.654Z" transform="translate(-643.901 -401.864)"/><path class="n" d="M1023.44,684.654c-1.175-.263-52.366-13.15,14.577-81.978,0,0,29.354,27.82,18.585,62.4a28.426,28.426,0,0,1-32.364,19.739Q1023.84,684.741,1023.44,684.654Z" transform="translate(-644.204 -401.864)"/><path class="j" d="M1060.04,685.052s28.268-42.586,13.874-82.376" transform="translate(-680.102 -401.864)"/><path class="h" d="M749.139,684.654s-53.519-11.965,14.577-81.978c0,0,29.354,27.82,18.585,62.4a28.426,28.426,0,0,1-32.364,19.739Q749.54,684.741,749.139,684.654Z" transform="translate(-469.561 -401.864)"/><path class="n" d="M749.441,684.654c-1.175-.263-52.366-13.15,14.577-81.978,0,0,29.354,27.82,18.585,62.4a28.426,28.426,0,0,1-32.364,19.739Q749.843,684.741,749.441,684.654Z" transform="translate(-469.864 -401.864)"/><path class="j" d="M786.043,685.052s28.268-42.586,13.874-82.376" transform="translate(-505.763 -401.864)"/><path class="h" d="M212.461,792.312c1.58-1.2,3.062-2.611,3.517-4.33a3.662,3.662,0,0,0-2.458-4.411c-2.257-.7-4.669.572-6.5,1.861s-3.924,2.76-6.318,2.487a7.038,7.038,0,0,0,2.974-7.344,2.843,2.843,0,0,0-.827-1.491c-1.253-1.093-3.524-.624-5.024.237-4.771,2.738-6.1,8.025-6.128,12.784-.481-1.717-.076-3.505-.088-5.266a5.011,5.011,0,0,0-2.424-4.659,8.668,8.668,0,0,0-3.7-.709c-2.145-.064-4.533.111-6,1.391-1.82,1.59-1.348,4.258.235,6.008s3.991,2.847,6.208,4.056a12.987,12.987,0,0,1,4.436,3.452,3.133,3.133,0,0,1,.329.617h13.445A38.65,38.65,0,0,0,212.461,792.312Z" transform="translate(-119.081 -513.703)"/><path class="h" d="M831.461,792.312c1.58-1.2,3.062-2.611,3.517-4.33a3.662,3.662,0,0,0-2.458-4.411c-2.257-.7-4.669.572-6.5,1.861s-3.924,2.76-6.318,2.487a7.038,7.038,0,0,0,2.974-7.344,2.844,2.844,0,0,0-.827-1.491c-1.253-1.093-3.524-.624-5.024.237-4.771,2.738-6.1,8.025-6.128,12.784-.481-1.717-.076-3.505-.088-5.266a5.011,5.011,0,0,0-2.424-4.659,8.668,8.668,0,0,0-3.7-.709c-2.145-.064-4.533.111-6,1.391-1.82,1.59-1.348,4.258.235,6.008s3.991,2.847,6.208,4.056a12.987,12.987,0,0,1,4.436,3.452,3.135,3.135,0,0,1,.329.617h13.445A38.649,38.649,0,0,0,831.461,792.312Z" transform="translate(-512.939 -513.703)"/><path class="o" d="M679.464,660.981c11.759,21.807,36.714,31.168,36.714,31.168s5.891-25.994-5.867-47.8S673.6,613.18,673.6,613.18,667.705,639.175,679.464,660.981Z" transform="translate(-433.276 -408.547)"/><path class="h" d="M631.484,709.238c21.229,12.772,29.4,38.141,29.4,38.141s-26.243,4.661-47.472-8.11-29.4-38.141-29.4-38.141S610.255,696.466,631.484,709.238Z" transform="translate(-377.214 -463.978)"/><path class="o" d="M491.464,660.981c11.758,21.807,36.714,31.168,36.714,31.168s5.891-25.994-5.867-47.8S485.6,613.18,485.6,613.18,479.705,639.175,491.464,660.981Z" transform="translate(-313.655 -408.547)"/><path class="h" d="M443.484,709.238c21.229,12.772,29.4,38.141,29.4,38.141s-26.243,4.661-47.472-8.11-29.4-38.141-29.4-38.141S422.255,696.466,443.484,709.238Z" transform="translate(-257.593 -463.978)"/><path class="o" d="M284.341,470.693c-20.342,30.453-15.293,69.528-15.293,69.528s38.029-10.3,58.371-40.753,15.293-69.528,15.293-69.528S304.683,440.24,284.341,470.693Z" transform="translate(-176.455 -291.955)"/><path class="l" d="M262.514,439.065c-1.986,36.568-29.46,64.809-29.46,64.809s-24.255-31.049-22.269-67.617,29.46-64.808,29.46-64.808S264.5,402.5,262.514,439.065Z" transform="translate(-139.664 -254.737)"/><path class="h" d="M915.575,508.381c.766,41.47-23.621,56.4-54.03,56.965q-1.059.02-2.109.015-2.115-.007-4.187-.115c-27.481-1.437-49.087-16.264-49.8-54.831-.737-39.912,49.343-91.222,53.1-95.017,0,0,0,0,.007,0,.143-.145.216-.217.216-.217S914.811,466.914,915.575,508.381Z" transform="translate(-518.106 -282.561)"/><path class="o" d="M912.854,559.045l19.619-28.51-19.613,31.6.006,3.232q-2.115-.007-4.187-.115l1.4-41.527-.023-.321.036-.061.134-3.924-20.818-30.931,20.825,27.993.066.83,1.06-31.375-17.924-32.029,18.035,26.516.507-65.02,0-.216,0,.213.662,51.256,16.871-20.636L912.656,471.07l.062,28.075,15.613-27.232-15.6,31.36.035,15.611,22.689-37.924-22.68,43.37Z" transform="translate(-571.534 -282.567)"/><path class="h" d="M680.579,508.381c.766,41.47-23.621,56.4-54.03,56.965q-1.06.02-2.109.015-2.115-.007-4.187-.115c-27.481-1.437-49.087-16.264-49.8-54.831-.737-39.912,49.344-91.222,53.1-95.017,0,0,0,0,.007,0,.143-.145.216-.217.216-.217S679.813,466.914,680.579,508.381Z" transform="translate(-368.582 -282.561)"/><path class="o" d="M677.854,559.045l19.619-28.51-19.613,31.6.006,3.232q-2.115-.007-4.187-.115l1.4-41.527-.023-.321.036-.061.134-3.924-20.818-30.931,20.825,27.993.066.83,1.06-31.375-17.924-32.029,18.035,26.516.507-65.02,0-.216,0,.213.662,51.256,16.871-20.636L677.656,471.07l.062,28.075,15.613-27.232-15.6,31.36.035,15.611,22.687-37.924-22.678,43.37Z" transform="translate(-422.008 -282.567)"/><path class="o" d="M961.575,510.381c.766,41.47-23.621,56.4-54.03,56.965q-1.059.02-2.109.015-2.115-.007-4.187-.115c-27.481-1.437-49.087-16.264-49.8-54.831-.737-39.912,49.343-91.222,53.1-95.017,0,0,0,0,.007,0,.143-.145.216-.217.216-.217S960.811,468.914,961.575,510.381Z" transform="translate(-547.375 -283.834)"/><path class="l" d="M958.854,561.045l19.619-28.51-19.613,31.6.006,3.232q-2.115-.007-4.187-.115l1.4-41.527-.023-.321.036-.062.134-3.924-20.818-30.931,20.825,27.993.066.83,1.06-31.375-17.924-32.029,18.035,26.516.507-65.02,0-.216,0,.213.662,51.256,16.87-20.636L958.656,473.07l.062,28.075,15.613-27.232-15.6,31.36.035,15.611,22.689-37.924-22.68,43.37Z" transform="translate(-600.803 -283.84)"/><path class="h" d="M125.579,508.381c.766,41.47-23.621,56.4-54.03,56.965q-1.06.02-2.109.015-2.115-.007-4.187-.115c-27.481-1.437-49.087-16.264-49.8-54.831C14.717,470.5,64.8,419.192,68.555,415.4c0,0,0,0,.007,0,.143-.145.216-.217.216-.217S124.814,466.914,125.579,508.381Z" transform="translate(-15.446 -282.561)"/><path class="o" d="M122.854,559.046l19.619-28.51-19.613,31.6.006,3.232q-2.115-.007-4.187-.115l1.4-41.527-.023-.321.036-.062.134-3.924L99.411,488.488l20.824,27.993.066.83,1.06-31.375-17.924-32.029,18.035,26.516.507-65.02,0-.216,0,.213.662,51.256L139.52,446.02l-16.863,25.051.062,28.075,15.613-27.232-15.6,31.36.035,15.611,22.687-37.924-22.678,43.37Z" transform="translate(-68.872 -282.568)"/><path class="o" d="M489.229,679.088q-19.632-3.326-37.759-5.713l4.778-9.263c-1.611-.56-8.689,4.745-8.689,4.745l6.27-26.888c-8.1.977-12.222,28.432-12.222,28.432l-9.052-9.282,4.383,10.436a835.834,835.834,0,0,0-95.8-6.029l4.089-7.928c-1.611-.56-8.689,4.745-8.689,4.745l6.27-26.889c-8.1.977-12.222,28.432-12.222,28.432L321.53,654.6l4.642,11.053A538.151,538.151,0,0,0,271.1,669.4c4.136-12.351,18.186-24.1,18.186-24.1-10.73,3.191-16.358,8.539-19.3,13.525A216.562,216.562,0,0,1,282.5,584s-22.178,48.263-19.349,80.659l.338,5.753c-18.8,2.692-28.256,5.493-28.256,5.493Z" transform="translate(-155.296 -389.98)"/><path class="o" d="M606.227,673.088q-19.632-3.326-37.759-5.713l4.778-9.263c-1.611-.56-8.689,4.745-8.689,4.745l6.27-26.889c-8.1.977-12.222,28.432-12.222,28.432l-9.051-9.282,4.383,10.436a835.862,835.862,0,0,0-95.8-6.029l4.089-7.928c-1.611-.56-8.689,4.745-8.689,4.745l6.27-26.889c-8.1.977-12.222,28.432-12.222,28.432L438.53,648.6l4.642,11.053A538.1,538.1,0,0,0,388.1,663.4c4.136-12.351,18.186-24.1,18.186-24.1-10.73,3.191-16.358,8.539-19.3,13.525A216.56,216.56,0,0,1,399.5,578s-22.178,48.263-19.349,80.659l.338,5.753c-18.8,2.692-28.256,5.493-28.256,5.493Z" transform="translate(-229.741 -386.162)"/><path class="o" d="M740.227,683.088q-19.631-3.326-37.759-5.713l4.778-9.263c-1.611-.56-8.689,4.745-8.689,4.745l6.27-26.888c-8.1.977-12.222,28.432-12.222,28.432l-9.052-9.283,4.383,10.436a835.816,835.816,0,0,0-95.8-6.029l4.089-7.928c-1.611-.56-8.689,4.745-8.689,4.745l6.27-26.888c-8.1.977-12.222,28.432-12.222,28.432L572.53,658.6l4.642,11.053A538.1,538.1,0,0,0,522.1,673.4c4.136-12.351,18.186-24.1,18.186-24.1-10.73,3.191-16.358,8.539-19.3,13.525A216.563,216.563,0,0,1,533.5,588s-22.178,48.263-19.349,80.659l.339,5.753c-18.8,2.692-28.256,5.493-28.256,5.493Z" transform="translate(-315.003 -392.525)"/><path class="o" d="M297.229,673.088q-19.632-3.326-37.759-5.713l4.778-9.263c-1.611-.56-8.689,4.745-8.689,4.745l6.27-26.889c-8.1.977-12.222,28.432-12.222,28.432l-9.052-9.282,4.383,10.436a835.862,835.862,0,0,0-95.8-6.029l4.089-7.928c-1.611-.56-8.689,4.745-8.689,4.745l6.27-26.889c-8.1.977-12.222,28.432-12.222,28.432L129.53,648.6l4.642,11.053A538.1,538.1,0,0,0,79.1,663.4c4.136-12.351,18.186-24.1,18.186-24.1-10.73,3.191-16.359,8.539-19.3,13.525A216.562,216.562,0,0,1,90.5,578s-22.178,48.263-19.349,80.659l.338,5.753c-18.8,2.692-28.256,5.493-28.256,5.493Z" transform="translate(-33.13 -386.162)"/></g></svg>